<svg xmlns="http://www.w3.org/2000/svg" width="24" height="24" viewBox="0 0 24 24" fill="none">
    <path
        d="M12 15.5C13.933 15.5 15.5 13.933 15.5 12C15.5 10.067 13.933 8.5 12 8.5C10.067 8.5 8.5 10.067 8.5 12C8.5 13.933 10.067 15.5 12 15.5Z
           M19.432 12C19.432 12.667 19.348 13.324 19.187 13.963L21 15.774L19.774 17L17.963 15.187C17.324 15.348 16.667 15.432 16 15.432
           C14.667 15.432 13.348 15.187 12 15.187C10.652 15.187 9.333 15.432 8 15.432C7.333 15.432 6.676 15.348 6.037 15.187L4.226 17L3 15.774
           L4.813 13.963C4.652 13.324 4.568 12.667 4.568 12C4.568 11.333 4.652 10.676 4.813 10.037L3 8.226L4.226 7L6.037 8.813C6.676 8.652 7.333 8.568
           8 8.568C9.333 8.568 10.652 8.813 12 8.813C13.348 8.813 14.667 8.568 16 8.568C16.667 8.568 17.324 8.652 17.963 8.813L19.774 7L21 8.226L19.187 10.037
           C19.348 10.676 19.432 11.333 19.432 12Z"
        stroke="#111827" stroke-width="2" stroke-linecap="round" stroke-linejoin="round" />
</svg>