<svg xmlns="http://www.w3.org/2000/svg"  viewBox="0 0 24 24" width="24px" height="24px"><path d="M 17.476562 2.9902344 A 1.0001 1.0001 0 0 0 16.724609 3.3691406 L 12.509766 8.5546875 L 9.0566406 3.7714844 C 8.7066406 3.2874844 8.1458281 3 7.5488281 3 L 4.078125 3 C 3.420125 3 3.0388281 3.7462969 3.4238281 4.2792969 L 9.3339844 12.462891 L 3.7246094 19.369141 A 1.0001 1.0001 0 1 0 5.2753906 20.630859 L 10.548828 14.142578 L 14.943359 20.228516 C 15.293359 20.712516 15.854172 21 16.451172 21 L 19.921875 21 C 20.579875 21 20.961172 20.253703 20.576172 19.720703 L 13.724609 10.232422 L 18.275391 4.6308594 A 1.0001 1.0001 0 0 0 17.476562 2.9902344 z M 6.4101562 5 L 7.4765625 5 L 17.587891 19 L 16.523438 19 L 6.4101562 5 z"/></svg>